<svg width="366" height="248" viewBox="0 0 366 248" fill="none" xmlns="http://www.w3.org/2000/svg">
<g filter="url(#filter0_d_1_47)">
<rect width="328" height="210" transform="translate(19 6)" fill="white"/>
<g clip-path="url(#clip0_1_47)">
<g clip-path="url(#clip1_1_47)">
<path opacity="0.15" d="M102.65 54.7502H63.35C63.332 54.7502 63.32 54.7621 63.32 54.7799V60.1851C63.32 63.7294 66.26 66.6039 69.878 66.6039C72.32 66.6039 74.45 65.3 75.584 63.3619C75.758 63.0597 76.088 62.87 76.442 62.87C76.796 62.87 77.12 63.0597 77.3 63.3619C78.428 65.3 80.558 66.6039 83 66.6039C85.448 66.6039 87.584 65.2941 88.706 63.3501C88.88 63.0537 89.198 62.87 89.54 62.87H89.576C89.924 62.87 90.236 63.0537 90.41 63.3501C91.538 65.2941 93.674 66.6039 96.122 66.6039C99.74 66.6039 102.68 63.7294 102.68 60.1851V54.7799C102.68 54.7621 102.668 54.7502 102.65 54.7502Z" fill="#00A0C1"/>
<path d="M105.2 50.4889V42.8966C105.2 41.8475 104.342 41 103.28 41H62.72C61.658 41 60.8 41.8475 60.8 42.8966V50.4889C59.798 50.5481 59 51.372 59 52.3795V60.1851C58.9962 61.6197 59.2903 63.0398 59.864 64.3576C60.122 64.9622 60.44 65.5311 60.8 66.0705V86.518C60.8 87.5612 61.658 88.4146 62.72 88.4146H103.28C104.342 88.4146 105.2 87.5671 105.2 86.518V66.0705C105.566 65.5298 105.879 64.9563 106.136 64.3576C106.706 63.036 107 61.6313 107 60.1851V52.3795C107 51.372 106.202 50.5481 105.2 50.4889ZM65.12 45.2673H100.88V50.4829H65.12V45.2673ZM86.84 84.1532H79.16V77.9834H86.84V84.1532ZM100.904 84.1532H90.68V76.0868C90.68 75.0378 89.822 74.1902 88.76 74.1902H77.24C76.178 74.1902 75.32 75.0378 75.32 76.0868V84.1532H65.12V69.7985C65.294 69.8814 65.474 69.9644 65.66 70.0355C66.998 70.5927 68.42 70.8712 69.884 70.8712C71.348 70.8712 72.764 70.5927 74.108 70.0355C74.936 69.6918 75.716 69.2532 76.43 68.7257C76.442 68.7198 76.454 68.7198 76.466 68.7257C77.1822 69.2554 77.9622 69.6954 78.788 70.0355C80.126 70.5927 81.548 70.8712 83.012 70.8712C84.476 70.8712 85.892 70.5927 87.236 70.0355C88.064 69.6918 88.844 69.2532 89.558 68.7257C89.57 68.7198 89.582 68.7198 89.594 68.7257C90.3102 69.2554 91.0902 69.6954 91.916 70.0355C93.254 70.5927 94.676 70.8712 96.14 70.8712C97.604 70.8712 99.02 70.5927 100.364 70.0355C100.544 69.9585 100.724 69.8814 100.904 69.7985V84.1532ZM102.68 60.1851C102.68 63.7294 99.74 66.6039 96.122 66.6039C93.674 66.6039 91.538 65.2941 90.41 63.3501C90.236 63.0537 89.924 62.87 89.576 62.87H89.54C89.198 62.87 88.88 63.0537 88.706 63.3501C88.1304 64.3417 87.2992 65.1652 86.297 65.7367C85.2948 66.3082 84.1572 66.6074 83 66.6039C80.558 66.6039 78.428 65.3 77.3 63.3619C77.12 63.0597 76.796 62.87 76.442 62.87C76.088 62.87 75.758 63.0597 75.584 63.3619C75.005 64.3498 74.1728 65.1695 73.1711 65.7387C72.1694 66.3078 71.0336 66.6062 69.878 66.6039C66.26 66.6039 63.32 63.7294 63.32 60.1851V54.7799C63.32 54.7621 63.332 54.7502 63.35 54.7502H102.65C102.668 54.7502 102.68 54.7621 102.68 54.7799V60.1851Z" fill="#00A0C1"/>
</g>
</g>
<path d="M72.8 107.224H76.544V124H72.8L64.808 113.488V124H61.064V107.224H64.568L72.8 118.024V107.224ZM91.3892 124H88.0052V122.44C87.0772 123.608 85.9252 124.192 84.5492 124.192C83.1892 124.192 82.0452 123.8 81.1172 123.016C80.1892 122.216 79.7252 121.16 79.7252 119.848C79.7252 118.52 80.2052 117.528 81.1652 116.872C82.1252 116.216 83.4372 115.888 85.1012 115.888H87.7892V115.816C87.7892 114.44 87.0612 113.752 85.6052 113.752C84.9812 113.752 84.3172 113.88 83.6132 114.136C82.9252 114.376 82.3412 114.68 81.8612 115.048L80.2532 112.72C81.9492 111.488 83.8852 110.872 86.0612 110.872C87.6292 110.872 88.9092 111.264 89.9012 112.048C90.8932 112.832 91.3892 114.072 91.3892 115.768V124ZM87.7652 119.08V118.456H85.5092C84.0692 118.456 83.3492 118.904 83.3492 119.8C83.3492 120.264 83.5172 120.624 83.8532 120.88C84.2052 121.12 84.7012 121.24 85.3412 121.24C85.9812 121.24 86.5412 121.048 87.0212 120.664C87.5172 120.264 87.7652 119.736 87.7652 119.08ZM98.9266 113.68V119.464C98.9266 119.96 99.0546 120.352 99.3106 120.64C99.5666 120.912 99.8706 121.048 100.223 121.048C100.895 121.048 101.463 120.744 101.927 120.136L103.271 122.656C102.151 123.68 100.967 124.192 99.7186 124.192C98.4866 124.192 97.4386 123.784 96.5746 122.968C95.7266 122.152 95.3026 121.04 95.3026 119.632V113.68H93.7906V111.088H95.3026V107.224H98.9266V111.088H102.047V113.68H98.9266ZM108.901 124H105.301V111.088H108.901V124ZM105.589 109.456C105.189 109.04 104.989 108.536 104.989 107.944C104.989 107.352 105.189 106.856 105.589 106.456C106.005 106.04 106.509 105.832 107.101 105.832C107.693 105.832 108.189 106.04 108.589 106.456C109.005 106.856 109.213 107.352 109.213 107.944C109.213 108.536 109.005 109.04 108.589 109.456C108.189 109.856 107.693 110.056 107.101 110.056C106.509 110.056 106.005 109.856 105.589 109.456ZM115.289 117.544C115.289 118.6 115.585 119.464 116.177 120.136C116.785 120.792 117.553 121.12 118.481 121.12C119.425 121.12 120.193 120.792 120.785 120.136C121.393 119.464 121.697 118.6 121.697 117.544C121.697 116.488 121.393 115.624 120.785 114.952C120.193 114.28 119.425 113.944 118.481 113.944C117.553 113.944 116.785 114.28 116.177 114.952C115.585 115.624 115.289 116.488 115.289 117.544ZM125.321 117.544C125.321 119.416 124.673 120.992 123.377 122.272C122.081 123.552 120.449 124.192 118.481 124.192C116.529 124.192 114.905 123.552 113.609 122.272C112.313 120.992 111.665 119.416 111.665 117.544C111.665 115.672 112.313 114.096 113.609 112.816C114.905 111.52 116.529 110.872 118.481 110.872C120.449 110.872 122.081 111.52 123.377 112.816C124.673 114.096 125.321 115.672 125.321 117.544ZM131.695 116.8V124H128.095V111.088H131.695V112.528C132.783 111.424 134.007 110.872 135.367 110.872C136.727 110.872 137.863 111.352 138.775 112.312C139.703 113.272 140.167 114.552 140.167 116.152V124H136.567V116.704C136.567 114.72 135.839 113.728 134.383 113.728C133.663 113.728 133.031 113.992 132.487 114.52C131.959 115.032 131.695 115.792 131.695 116.8ZM154.491 124H151.107V122.44C150.179 123.608 149.027 124.192 147.651 124.192C146.291 124.192 145.147 123.8 144.219 123.016C143.291 122.216 142.827 121.16 142.827 119.848C142.827 118.52 143.307 117.528 144.267 116.872C145.227 116.216 146.539 115.888 148.203 115.888H150.891V115.816C150.891 114.44 150.163 113.752 148.707 113.752C148.083 113.752 147.419 113.88 146.715 114.136C146.027 114.376 145.443 114.68 144.963 115.048L143.355 112.72C145.051 111.488 146.987 110.872 149.163 110.872C150.731 110.872 152.011 111.264 153.003 112.048C153.995 112.832 154.491 114.072 154.491 115.768V124ZM150.867 119.08V118.456H148.611C147.171 118.456 146.451 118.904 146.451 119.8C146.451 120.264 146.619 120.624 146.955 120.88C147.307 121.12 147.803 121.24 148.443 121.24C149.083 121.24 149.643 121.048 150.123 120.664C150.619 120.264 150.867 119.736 150.867 119.08ZM161.473 124H157.873V106.192H161.473V124ZM175.705 113.68V119.464C175.705 119.96 175.833 120.352 176.089 120.64C176.345 120.912 176.649 121.048 177.001 121.048C177.673 121.048 178.241 120.744 178.705 120.136L180.049 122.656C178.929 123.68 177.745 124.192 176.497 124.192C175.265 124.192 174.217 123.784 173.353 122.968C172.505 122.152 172.081 121.04 172.081 119.632V113.68H170.569V111.088H172.081V107.224H175.705V111.088H178.825V113.68H175.705ZM184.818 117.544C184.818 118.6 185.114 119.464 185.706 120.136C186.314 120.792 187.082 121.12 188.01 121.12C188.954 121.12 189.722 120.792 190.314 120.136C190.922 119.464 191.226 118.6 191.226 117.544C191.226 116.488 190.922 115.624 190.314 114.952C189.722 114.28 188.954 113.944 188.01 113.944C187.082 113.944 186.314 114.28 185.706 114.952C185.114 115.624 184.818 116.488 184.818 117.544ZM194.85 117.544C194.85 119.416 194.202 120.992 192.906 122.272C191.61 123.552 189.978 124.192 188.01 124.192C186.058 124.192 184.434 123.552 183.138 122.272C181.842 120.992 181.194 119.416 181.194 117.544C181.194 115.672 181.842 114.096 183.138 112.816C184.434 111.52 186.058 110.872 188.01 110.872C189.978 110.872 191.61 111.52 192.906 112.816C194.202 114.096 194.85 115.672 194.85 117.544ZM205.136 110.872C206.64 110.872 207.976 111.504 209.144 112.768C210.328 114.016 210.92 115.592 210.92 117.496C210.92 119.4 210.328 120.992 209.144 122.272C207.976 123.552 206.6 124.192 205.016 124.192C203.448 124.192 202.184 123.56 201.224 122.296V128.656H197.624V111.088H201.224V112.528C202.328 111.424 203.632 110.872 205.136 110.872ZM201.176 117.568C201.176 118.608 201.464 119.464 202.04 120.136C202.632 120.792 203.344 121.12 204.176 121.12C205.008 121.12 205.736 120.792 206.36 120.136C206.984 119.464 207.296 118.608 207.296 117.568C207.296 116.528 206.992 115.656 206.384 114.952C205.776 114.248 205.048 113.896 204.2 113.896C203.352 113.896 202.632 114.248 202.04 114.952C201.464 115.64 201.176 116.512 201.176 117.568ZM230.577 107.224V110.464H223.953V113.272C224.449 113.128 225.017 113.056 225.657 113.056C227.273 113.056 228.665 113.544 229.833 114.52C231.001 115.496 231.585 116.816 231.585 118.48C231.585 120.128 230.977 121.496 229.761 122.584C228.561 123.656 227.073 124.192 225.297 124.192C223.025 124.192 221.129 123.352 219.609 121.672L221.577 118.936C221.721 119.08 221.913 119.256 222.153 119.464C222.393 119.672 222.833 119.952 223.473 120.304C224.113 120.64 224.753 120.808 225.393 120.808C226.033 120.808 226.601 120.616 227.097 120.232C227.593 119.848 227.841 119.28 227.841 118.528C227.841 117.776 227.569 117.2 227.025 116.8C226.497 116.384 225.809 116.176 224.961 116.176C224.113 116.176 223.129 116.48 222.009 117.088L220.449 115.408V107.224H230.577ZM238.638 111.472C238.11 112.496 237.846 113.848 237.846 115.528C237.846 117.208 238.11 118.56 238.638 119.584C239.166 120.608 239.99 121.12 241.11 121.12C242.23 121.12 243.054 120.608 243.582 119.584C244.11 118.56 244.374 117.208 244.374 115.528C244.374 113.848 244.11 112.496 243.582 111.472C243.054 110.448 242.23 109.936 241.11 109.936C239.99 109.936 239.166 110.448 238.638 111.472ZM241.11 124.192C238.79 124.192 237.054 123.408 235.902 121.84C234.75 120.256 234.174 118.152 234.174 115.528C234.174 112.888 234.75 110.784 235.902 109.216C237.054 107.632 238.79 106.84 241.11 106.84C243.43 106.84 245.166 107.632 246.318 109.216C247.47 110.784 248.046 112.888 248.046 115.528C248.046 118.152 247.47 120.256 246.318 121.84C245.166 123.408 243.43 124.192 241.11 124.192ZM261.928 110.344V111.208H265.048V113.8H261.928V124H258.304V113.8H256.792V111.208H258.304V110.416C258.304 109.008 258.728 107.896 259.576 107.08C260.44 106.248 261.504 105.832 262.768 105.832C264.048 105.832 265.208 106.312 266.248 107.272L264.952 109.696C264.424 109.088 263.84 108.784 263.2 108.784C262.832 108.784 262.528 108.92 262.288 109.192C262.048 109.448 261.928 109.832 261.928 110.344ZM270.988 124H267.388V111.088H270.988V124ZM267.676 109.456C267.276 109.04 267.076 108.536 267.076 107.944C267.076 107.352 267.276 106.856 267.676 106.456C268.092 106.04 268.596 105.832 269.188 105.832C269.78 105.832 270.276 106.04 270.676 106.456C271.092 106.856 271.3 107.352 271.3 107.944C271.3 108.536 271.092 109.04 270.676 109.456C270.276 109.856 269.78 110.056 269.188 110.056C268.596 110.056 268.092 109.856 267.676 109.456ZM281.288 114.256C280.216 114.256 279.416 114.64 278.888 115.408C278.36 116.16 278.096 117.16 278.096 118.408V124H274.496V111.088H278.096V112.792C278.56 112.264 279.136 111.816 279.824 111.448C280.528 111.08 281.24 110.888 281.96 110.872L281.984 114.256H281.288ZM296.319 117.04V124H292.695V116.944C292.695 115.92 292.535 115.168 292.215 114.688C291.911 114.208 291.407 113.968 290.703 113.968C290.015 113.968 289.399 114.232 288.855 114.76C288.327 115.272 288.063 116.032 288.063 117.04V124H284.463V111.088H288.063V112.552C289.055 111.432 290.191 110.872 291.471 110.872C292.287 110.872 293.023 111.112 293.679 111.592C294.351 112.072 294.855 112.656 295.191 113.344C295.687 112.56 296.351 111.952 297.183 111.52C298.031 111.088 298.879 110.872 299.727 110.872C301.247 110.872 302.471 111.328 303.399 112.24C304.327 113.136 304.791 114.44 304.791 116.152V124H301.167V116.944C301.167 114.96 300.439 113.968 298.983 113.968C298.263 113.968 297.639 114.232 297.111 114.76C296.583 115.272 296.319 116.032 296.319 117.04ZM317.885 119.992C317.885 121.256 317.413 122.272 316.469 123.04C315.541 123.808 314.357 124.192 312.917 124.192C311.957 124.192 310.957 124.024 309.917 123.688C308.877 123.336 307.941 122.824 307.109 122.152L308.693 119.896C310.037 120.936 311.469 121.456 312.989 121.456C313.453 121.456 313.821 121.368 314.093 121.192C314.365 121 314.501 120.752 314.501 120.448C314.501 120.144 314.309 119.864 313.925 119.608C313.557 119.352 313.013 119.112 312.293 118.888C311.589 118.664 311.045 118.472 310.661 118.312C310.293 118.152 309.869 117.92 309.389 117.616C308.413 117.008 307.925 116.112 307.925 114.928C307.925 113.728 308.405 112.752 309.365 112C310.325 111.248 311.565 110.872 313.085 110.872C314.605 110.872 316.125 111.384 317.645 112.408L316.301 114.808C315.181 114.04 314.061 113.656 312.941 113.656C311.837 113.656 311.285 113.96 311.285 114.568C311.285 114.904 311.461 115.168 311.813 115.36C312.165 115.552 312.749 115.776 313.565 116.032C314.381 116.288 314.957 116.488 315.293 116.632C315.645 116.76 316.061 116.968 316.541 117.256C317.437 117.8 317.885 118.712 317.885 119.992Z" fill="#252B42"/>
<path d="M61.73 156.112C61.142 156.112 60.596 155.991 60.092 155.748C59.588 155.496 59.182 155.146 58.874 154.698L59.686 153.746C60.2273 154.521 60.9087 154.908 61.73 154.908C62.2807 154.908 62.696 154.74 62.976 154.404C63.2653 154.068 63.41 153.573 63.41 152.92V147.418H59.868V146.2H64.796V152.85C64.796 153.933 64.5347 154.749 64.012 155.3C63.4987 155.841 62.738 156.112 61.73 156.112ZM74.5677 148.58V156H73.2937V154.88C73.0231 155.263 72.6637 155.561 72.2157 155.776C71.7771 155.981 71.2964 156.084 70.7737 156.084C69.7844 156.084 69.0051 155.813 68.4357 155.272C67.8664 154.721 67.5817 153.914 67.5817 152.85V148.58H68.9257V152.696C68.9257 153.415 69.0984 153.961 69.4437 154.334C69.7891 154.698 70.2837 154.88 70.9277 154.88C71.6371 154.88 72.1971 154.665 72.6077 154.236C73.0184 153.807 73.2237 153.2 73.2237 152.416V148.58H74.5677ZM79.4543 156.084C78.8477 156.084 78.2643 156.005 77.7043 155.846C77.1443 155.678 76.7057 155.468 76.3883 155.216L76.9483 154.152C77.275 154.385 77.6717 154.572 78.1383 154.712C78.605 154.852 79.0763 154.922 79.5523 154.922C80.7283 154.922 81.3163 154.586 81.3163 153.914C81.3163 153.69 81.237 153.513 81.0783 153.382C80.9197 153.251 80.719 153.158 80.4763 153.102C80.243 153.037 79.907 152.967 79.4683 152.892C78.871 152.799 78.381 152.691 77.9983 152.57C77.625 152.449 77.303 152.243 77.0323 151.954C76.7617 151.665 76.6263 151.259 76.6263 150.736C76.6263 150.064 76.9063 149.527 77.4663 149.126C78.0263 148.715 78.7777 148.51 79.7203 148.51C80.215 148.51 80.7097 148.571 81.2043 148.692C81.699 148.813 82.105 148.977 82.4223 149.182L81.8483 150.246C81.2417 149.854 80.5277 149.658 79.7063 149.658C79.137 149.658 78.703 149.751 78.4043 149.938C78.1057 150.125 77.9563 150.372 77.9563 150.68C77.9563 150.923 78.0403 151.114 78.2083 151.254C78.3763 151.394 78.5817 151.497 78.8243 151.562C79.0763 151.627 79.4263 151.702 79.8743 151.786C80.4717 151.889 80.9523 152.001 81.3163 152.122C81.6897 152.234 82.007 152.43 82.2683 152.71C82.5297 152.99 82.6603 153.382 82.6603 153.886C82.6603 154.558 82.371 155.095 81.7923 155.496C81.223 155.888 80.4437 156.084 79.4543 156.084ZM88.712 155.566C88.516 155.734 88.2733 155.865 87.984 155.958C87.6947 156.042 87.396 156.084 87.088 156.084C86.3413 156.084 85.7627 155.883 85.352 155.482C84.9413 155.081 84.736 154.507 84.736 153.76V149.686H83.476V148.58H84.736V146.956H86.08V148.58H88.208V149.686H86.08V153.704C86.08 154.105 86.178 154.413 86.374 154.628C86.5793 154.843 86.8687 154.95 87.242 154.95C87.6527 154.95 88.0027 154.833 88.292 154.6L88.712 155.566ZM98.6687 155.566C98.4727 155.734 98.23 155.865 97.9407 155.958C97.6513 156.042 97.3527 156.084 97.0447 156.084C96.298 156.084 95.7193 155.883 95.3087 155.482C94.898 155.081 94.6927 154.507 94.6927 153.76V149.686H93.4327V148.58H94.6927V146.956H96.0367V148.58H98.1647V149.686H96.0367V153.704C96.0367 154.105 96.1347 154.413 96.3307 154.628C96.536 154.843 96.8253 154.95 97.1987 154.95C97.6093 154.95 97.9593 154.833 98.2487 154.6L98.6687 155.566ZM106.923 148.58L103.325 156.742C103.007 157.498 102.634 158.03 102.205 158.338C101.785 158.646 101.276 158.8 100.679 158.8C100.315 158.8 99.9601 158.739 99.6148 158.618C99.2788 158.506 98.9988 158.338 98.7748 158.114L99.3488 157.106C99.7315 157.47 100.175 157.652 100.679 157.652C101.005 157.652 101.276 157.563 101.491 157.386C101.715 157.218 101.915 156.924 102.093 156.504L102.331 155.986L99.0548 148.58H100.455L103.045 154.516L105.607 148.58H106.923ZM112.311 148.51C113.03 148.51 113.674 148.669 114.243 148.986C114.812 149.303 115.256 149.747 115.573 150.316C115.9 150.885 116.063 151.543 116.063 152.29C116.063 153.037 115.9 153.699 115.573 154.278C115.256 154.847 114.812 155.291 114.243 155.608C113.674 155.925 113.03 156.084 112.311 156.084C111.779 156.084 111.289 155.981 110.841 155.776C110.402 155.571 110.029 155.272 109.721 154.88V158.716H108.377V148.58H109.665V149.756C109.964 149.345 110.342 149.037 110.799 148.832C111.256 148.617 111.76 148.51 112.311 148.51ZM112.199 154.908C112.675 154.908 113.1 154.801 113.473 154.586C113.856 154.362 114.154 154.054 114.369 153.662C114.593 153.261 114.705 152.803 114.705 152.29C114.705 151.777 114.593 151.324 114.369 150.932C114.154 150.531 113.856 150.223 113.473 150.008C113.1 149.793 112.675 149.686 112.199 149.686C111.732 149.686 111.308 149.798 110.925 150.022C110.552 150.237 110.253 150.54 110.029 150.932C109.814 151.324 109.707 151.777 109.707 152.29C109.707 152.803 109.814 153.261 110.029 153.662C110.244 154.054 110.542 154.362 110.925 154.586C111.308 154.801 111.732 154.908 112.199 154.908ZM124.826 152.332C124.826 152.435 124.817 152.57 124.798 152.738H118.778C118.862 153.391 119.147 153.919 119.632 154.32C120.127 154.712 120.738 154.908 121.466 154.908C122.353 154.908 123.067 154.609 123.608 154.012L124.35 154.88C124.014 155.272 123.594 155.571 123.09 155.776C122.595 155.981 122.04 156.084 121.424 156.084C120.64 156.084 119.945 155.925 119.338 155.608C118.731 155.281 118.26 154.829 117.924 154.25C117.597 153.671 117.434 153.018 117.434 152.29C117.434 151.571 117.593 150.923 117.91 150.344C118.237 149.765 118.68 149.317 119.24 149C119.809 148.673 120.449 148.51 121.158 148.51C121.867 148.51 122.497 148.673 123.048 149C123.608 149.317 124.042 149.765 124.35 150.344C124.667 150.923 124.826 151.585 124.826 152.332ZM121.158 149.644C120.514 149.644 119.973 149.84 119.534 150.232C119.105 150.624 118.853 151.137 118.778 151.772H123.538C123.463 151.147 123.207 150.638 122.768 150.246C122.339 149.845 121.802 149.644 121.158 149.644ZM142.08 148.58L139.308 156H138.02L135.878 150.372L133.708 156H132.42L129.662 148.58H130.936L133.092 154.488L135.332 148.58H136.466L138.664 154.516L140.876 148.58H142.08ZM147.606 148.51C148.549 148.51 149.295 148.785 149.846 149.336C150.406 149.877 150.686 150.675 150.686 151.73V156H149.342V151.884C149.342 151.165 149.169 150.624 148.824 150.26C148.479 149.896 147.984 149.714 147.34 149.714C146.612 149.714 146.038 149.929 145.618 150.358C145.198 150.778 144.988 151.385 144.988 152.178V156H143.644V145.612H144.988V149.63C145.268 149.275 145.632 149 146.08 148.804C146.537 148.608 147.046 148.51 147.606 148.51ZM156.075 148.51C157.102 148.51 157.886 148.762 158.427 149.266C158.978 149.77 159.253 150.521 159.253 151.52V156H157.979V155.02C157.755 155.365 157.433 155.631 157.013 155.818C156.603 155.995 156.113 156.084 155.543 156.084C154.713 156.084 154.045 155.883 153.541 155.482C153.047 155.081 152.799 154.553 152.799 153.9C152.799 153.247 153.037 152.724 153.513 152.332C153.989 151.931 154.745 151.73 155.781 151.73H157.909V151.464C157.909 150.885 157.741 150.442 157.405 150.134C157.069 149.826 156.575 149.672 155.921 149.672C155.483 149.672 155.053 149.747 154.633 149.896C154.213 150.036 153.859 150.227 153.569 150.47L153.009 149.462C153.392 149.154 153.849 148.921 154.381 148.762C154.913 148.594 155.478 148.51 156.075 148.51ZM155.767 155.048C156.281 155.048 156.724 154.936 157.097 154.712C157.471 154.479 157.741 154.152 157.909 153.732V152.696H155.837C154.699 152.696 154.129 153.079 154.129 153.844C154.129 154.217 154.274 154.511 154.563 154.726C154.853 154.941 155.254 155.048 155.767 155.048ZM166.112 155.566C165.916 155.734 165.674 155.865 165.384 155.958C165.095 156.042 164.796 156.084 164.488 156.084C163.742 156.084 163.163 155.883 162.752 155.482C162.342 155.081 162.136 154.507 162.136 153.76V149.686H160.876V148.58H162.136V146.956H163.48V148.58H165.608V149.686H163.48V153.704C163.48 154.105 163.578 154.413 163.774 154.628C163.98 154.843 164.269 154.95 164.642 154.95C165.053 154.95 165.403 154.833 165.692 154.6L166.112 155.566ZM167.545 146.2H168.721L168.623 149.98H167.629L167.545 146.2ZM173.205 156.084C172.598 156.084 172.015 156.005 171.455 155.846C170.895 155.678 170.456 155.468 170.139 155.216L170.699 154.152C171.025 154.385 171.422 154.572 171.889 154.712C172.355 154.852 172.827 154.922 173.303 154.922C174.479 154.922 175.067 154.586 175.067 153.914C175.067 153.69 174.987 153.513 174.829 153.382C174.67 153.251 174.469 153.158 174.227 153.102C173.993 153.037 173.657 152.967 173.219 152.892C172.621 152.799 172.131 152.691 171.749 152.57C171.375 152.449 171.053 152.243 170.783 151.954C170.512 151.665 170.377 151.259 170.377 150.736C170.377 150.064 170.657 149.527 171.217 149.126C171.777 148.715 172.528 148.51 173.471 148.51C173.965 148.51 174.46 148.571 174.955 148.692C175.449 148.813 175.855 148.977 176.173 149.182L175.599 150.246C174.992 149.854 174.278 149.658 173.457 149.658C172.887 149.658 172.453 149.751 172.155 149.938C171.856 150.125 171.707 150.372 171.707 150.68C171.707 150.923 171.791 151.114 171.959 151.254C172.127 151.394 172.332 151.497 172.575 151.562C172.827 151.627 173.177 151.702 173.625 151.786C174.222 151.889 174.703 152.001 175.067 152.122C175.44 152.234 175.757 152.43 176.019 152.71C176.28 152.99 176.411 153.382 176.411 153.886C176.411 154.558 176.121 155.095 175.543 155.496C174.973 155.888 174.194 156.084 173.205 156.084ZM185.428 156.084C184.691 156.084 184.028 155.921 183.44 155.594C182.852 155.267 182.39 154.819 182.054 154.25C181.728 153.671 181.564 153.018 181.564 152.29C181.564 151.562 181.728 150.913 182.054 150.344C182.39 149.765 182.852 149.317 183.44 149C184.028 148.673 184.691 148.51 185.428 148.51C186.166 148.51 186.824 148.673 187.402 149C187.99 149.317 188.448 149.765 188.774 150.344C189.11 150.913 189.278 151.562 189.278 152.29C189.278 153.018 189.11 153.671 188.774 154.25C188.448 154.819 187.99 155.267 187.402 155.594C186.824 155.921 186.166 156.084 185.428 156.084ZM185.428 154.908C185.904 154.908 186.329 154.801 186.702 154.586C187.085 154.362 187.384 154.054 187.598 153.662C187.813 153.261 187.92 152.803 187.92 152.29C187.92 151.777 187.813 151.324 187.598 150.932C187.384 150.531 187.085 150.223 186.702 150.008C186.329 149.793 185.904 149.686 185.428 149.686C184.952 149.686 184.523 149.793 184.14 150.008C183.767 150.223 183.468 150.531 183.244 150.932C183.03 151.324 182.922 151.777 182.922 152.29C182.922 152.803 183.03 153.261 183.244 153.662C183.468 154.054 183.767 154.362 184.14 154.586C184.523 154.801 184.952 154.908 185.428 154.908ZM195.299 148.51C196.242 148.51 196.988 148.785 197.539 149.336C198.099 149.877 198.379 150.675 198.379 151.73V156H197.035V151.884C197.035 151.165 196.862 150.624 196.517 150.26C196.172 149.896 195.677 149.714 195.033 149.714C194.305 149.714 193.731 149.929 193.311 150.358C192.891 150.778 192.681 151.385 192.681 152.178V156H191.337V148.58H192.625V149.7C192.896 149.317 193.26 149.023 193.717 148.818C194.184 148.613 194.711 148.51 195.299 148.51ZM211.592 148.58L207.994 156.742C207.677 157.498 207.303 158.03 206.874 158.338C206.454 158.646 205.945 158.8 205.348 158.8C204.984 158.8 204.629 158.739 204.284 158.618C203.948 158.506 203.668 158.338 203.444 158.114L204.018 157.106C204.401 157.47 204.844 157.652 205.348 157.652C205.675 157.652 205.945 157.563 206.16 157.386C206.384 157.218 206.585 156.924 206.762 156.504L207 155.986L203.724 148.58H205.124L207.714 154.516L210.276 148.58H211.592ZM216.019 156.084C215.282 156.084 214.619 155.921 214.031 155.594C213.443 155.267 212.981 154.819 212.645 154.25C212.319 153.671 212.155 153.018 212.155 152.29C212.155 151.562 212.319 150.913 212.645 150.344C212.981 149.765 213.443 149.317 214.031 149C214.619 148.673 215.282 148.51 216.019 148.51C216.757 148.51 217.415 148.673 217.993 149C218.581 149.317 219.039 149.765 219.365 150.344C219.701 150.913 219.869 151.562 219.869 152.29C219.869 153.018 219.701 153.671 219.365 154.25C219.039 154.819 218.581 155.267 217.993 155.594C217.415 155.921 216.757 156.084 216.019 156.084ZM216.019 154.908C216.495 154.908 216.92 154.801 217.293 154.586C217.676 154.362 217.975 154.054 218.189 153.662C218.404 153.261 218.511 152.803 218.511 152.29C218.511 151.777 218.404 151.324 218.189 150.932C217.975 150.531 217.676 150.223 217.293 150.008C216.92 149.793 216.495 149.686 216.019 149.686C215.543 149.686 215.114 149.793 214.731 150.008C214.358 150.223 214.059 150.531 213.835 150.932C213.621 151.324 213.513 151.777 213.513 152.29C213.513 152.803 213.621 153.261 213.835 153.662C214.059 154.054 214.358 154.362 214.731 154.586C215.114 154.801 215.543 154.908 216.019 154.908ZM228.844 148.58V156H227.57V154.88C227.299 155.263 226.94 155.561 226.492 155.776C226.053 155.981 225.573 156.084 225.05 156.084C224.061 156.084 223.281 155.813 222.712 155.272C222.143 154.721 221.858 153.914 221.858 152.85V148.58H223.202V152.696C223.202 153.415 223.375 153.961 223.72 154.334C224.065 154.698 224.56 154.88 225.204 154.88C225.913 154.88 226.473 154.665 226.884 154.236C227.295 153.807 227.5 153.2 227.5 152.416V148.58H228.844ZM232.891 149.826C233.124 149.397 233.469 149.07 233.927 148.846C234.384 148.622 234.939 148.51 235.593 148.51V149.812C235.518 149.803 235.415 149.798 235.285 149.798C234.557 149.798 233.983 150.017 233.563 150.456C233.152 150.885 232.947 151.501 232.947 152.304V156H231.603V148.58H232.891V149.826ZM250.786 148.51C251.72 148.51 252.457 148.781 252.998 149.322C253.549 149.863 253.824 150.666 253.824 151.73V156H252.48V151.884C252.48 151.165 252.312 150.624 251.976 150.26C251.65 149.896 251.178 149.714 250.562 149.714C249.881 149.714 249.34 149.929 248.938 150.358C248.537 150.778 248.336 151.385 248.336 152.178V156H246.992V151.884C246.992 151.165 246.824 150.624 246.488 150.26C246.162 149.896 245.69 149.714 245.074 149.714C244.393 149.714 243.852 149.929 243.45 150.358C243.049 150.778 242.848 151.385 242.848 152.178V156H241.504V148.58H242.792V149.686C243.063 149.303 243.418 149.014 243.856 148.818C244.295 148.613 244.794 148.51 245.354 148.51C245.933 148.51 246.446 148.627 246.894 148.86C247.342 149.093 247.688 149.434 247.93 149.882C248.21 149.453 248.598 149.117 249.092 148.874C249.596 148.631 250.161 148.51 250.786 148.51ZM256.497 148.58H257.841V156H256.497V148.58ZM257.169 147.152C256.908 147.152 256.689 147.068 256.511 146.9C256.343 146.732 256.259 146.527 256.259 146.284C256.259 146.041 256.343 145.836 256.511 145.668C256.689 145.491 256.908 145.402 257.169 145.402C257.431 145.402 257.645 145.486 257.813 145.654C257.991 145.813 258.079 146.013 258.079 146.256C258.079 146.508 257.991 146.723 257.813 146.9C257.645 147.068 257.431 147.152 257.169 147.152ZM264.57 148.51C265.512 148.51 266.259 148.785 266.81 149.336C267.37 149.877 267.65 150.675 267.65 151.73V156H266.306V151.884C266.306 151.165 266.133 150.624 265.788 150.26C265.442 149.896 264.948 149.714 264.304 149.714C263.576 149.714 263.002 149.929 262.582 150.358C262.162 150.778 261.952 151.385 261.952 152.178V156H260.608V148.58H261.896V149.7C262.166 149.317 262.53 149.023 262.988 148.818C263.454 148.613 263.982 148.51 264.57 148.51ZM277.378 145.612V156H276.09V154.824C275.791 155.235 275.413 155.547 274.956 155.762C274.499 155.977 273.995 156.084 273.444 156.084C272.725 156.084 272.081 155.925 271.512 155.608C270.943 155.291 270.495 154.847 270.168 154.278C269.851 153.699 269.692 153.037 269.692 152.29C269.692 151.543 269.851 150.885 270.168 150.316C270.495 149.747 270.943 149.303 271.512 148.986C272.081 148.669 272.725 148.51 273.444 148.51C273.976 148.51 274.466 148.613 274.914 148.818C275.362 149.014 275.735 149.308 276.034 149.7V145.612H277.378ZM273.556 154.908C274.023 154.908 274.447 154.801 274.83 154.586C275.213 154.362 275.511 154.054 275.726 153.662C275.941 153.261 276.048 152.803 276.048 152.29C276.048 151.777 275.941 151.324 275.726 150.932C275.511 150.531 275.213 150.223 274.83 150.008C274.447 149.793 274.023 149.686 273.556 149.686C273.08 149.686 272.651 149.793 272.268 150.008C271.895 150.223 271.596 150.531 271.372 150.932C271.157 151.324 271.05 151.777 271.05 152.29C271.05 152.803 271.157 153.261 271.372 153.662C271.596 154.054 271.895 154.362 272.268 154.586C272.651 154.801 273.08 154.908 273.556 154.908ZM62.976 168.51C64.0027 168.51 64.7867 168.762 65.328 169.266C65.8787 169.77 66.154 170.521 66.154 171.52V176H64.88V175.02C64.656 175.365 64.334 175.631 63.914 175.818C63.5033 175.995 63.0133 176.084 62.444 176.084C61.6133 176.084 60.946 175.883 60.442 175.482C59.9473 175.081 59.7 174.553 59.7 173.9C59.7 173.247 59.938 172.724 60.414 172.332C60.89 171.931 61.646 171.73 62.682 171.73H64.81V171.464C64.81 170.885 64.642 170.442 64.306 170.134C63.97 169.826 63.4753 169.672 62.822 169.672C62.3833 169.672 61.954 169.747 61.534 169.896C61.114 170.036 60.7593 170.227 60.47 170.47L59.91 169.462C60.2927 169.154 60.75 168.921 61.282 168.762C61.814 168.594 62.3787 168.51 62.976 168.51ZM62.668 175.048C63.1813 175.048 63.6247 174.936 63.998 174.712C64.3713 174.479 64.642 174.152 64.81 173.732V172.696H62.738C61.5993 172.696 61.03 173.079 61.03 173.844C61.03 174.217 61.1747 174.511 61.464 174.726C61.7533 174.941 62.1547 175.048 62.668 175.048ZM72.8032 168.51C73.7459 168.51 74.4925 168.785 75.0432 169.336C75.6032 169.877 75.8832 170.675 75.8832 171.73V176H74.5392V171.884C74.5392 171.165 74.3665 170.624 74.0212 170.26C73.6759 169.896 73.1812 169.714 72.5372 169.714C71.8092 169.714 71.2352 169.929 70.8152 170.358C70.3952 170.778 70.1852 171.385 70.1852 172.178V176H68.8412V168.58H70.1292V169.7C70.3999 169.317 70.7639 169.023 71.2212 168.818C71.6879 168.613 72.2152 168.51 72.8032 168.51ZM85.6115 165.612V176H84.3235V174.824C84.0248 175.235 83.6468 175.547 83.1895 175.762C82.7322 175.977 82.2282 176.084 81.6775 176.084C80.9588 176.084 80.3148 175.925 79.7455 175.608C79.1762 175.291 78.7282 174.847 78.4015 174.278C78.0842 173.699 77.9255 173.037 77.9255 172.29C77.9255 171.543 78.0842 170.885 78.4015 170.316C78.7282 169.747 79.1762 169.303 79.7455 168.986C80.3148 168.669 80.9588 168.51 81.6775 168.51C82.2095 168.51 82.6995 168.613 83.1475 168.818C83.5955 169.014 83.9688 169.308 84.2675 169.7V165.612H85.6115ZM81.7895 174.908C82.2562 174.908 82.6808 174.801 83.0635 174.586C83.4462 174.362 83.7448 174.054 83.9595 173.662C84.1742 173.261 84.2815 172.803 84.2815 172.29C84.2815 171.777 84.1742 171.324 83.9595 170.932C83.7448 170.531 83.4462 170.223 83.0635 170.008C82.6808 169.793 82.2562 169.686 81.7895 169.686C81.3135 169.686 80.8842 169.793 80.5015 170.008C80.1282 170.223 79.8295 170.531 79.6055 170.932C79.3908 171.324 79.2835 171.777 79.2835 172.29C79.2835 172.803 79.3908 173.261 79.6055 173.662C79.8295 174.054 80.1282 174.362 80.5015 174.586C80.8842 174.801 81.3135 174.908 81.7895 174.908ZM103.542 168.58L100.77 176H99.4822L97.3402 170.372L95.1702 176H93.8822L91.1242 168.58H92.3982L94.5542 174.488L96.7942 168.58H97.9282L100.126 174.516L102.338 168.58H103.542ZM111.607 172.332C111.607 172.435 111.598 172.57 111.579 172.738H105.559C105.643 173.391 105.928 173.919 106.413 174.32C106.908 174.712 107.519 174.908 108.247 174.908C109.134 174.908 109.848 174.609 110.389 174.012L111.131 174.88C110.795 175.272 110.375 175.571 109.871 175.776C109.376 175.981 108.821 176.084 108.205 176.084C107.421 176.084 106.726 175.925 106.119 175.608C105.512 175.281 105.041 174.829 104.705 174.25C104.378 173.671 104.215 173.018 104.215 172.29C104.215 171.571 104.374 170.923 104.691 170.344C105.018 169.765 105.461 169.317 106.021 169C106.59 168.673 107.23 168.51 107.939 168.51C108.648 168.51 109.278 168.673 109.829 169C110.389 169.317 110.823 169.765 111.131 170.344C111.448 170.923 111.607 171.585 111.607 172.332ZM107.939 169.644C107.295 169.644 106.754 169.84 106.315 170.232C105.886 170.624 105.634 171.137 105.559 171.772H110.319C110.244 171.147 109.988 170.638 109.549 170.246C109.12 169.845 108.583 169.644 107.939 169.644ZM112.967 166.2H114.143L114.045 169.98H113.051L112.967 166.2ZM116.498 165.612H117.842V176H116.498V165.612ZM120.608 165.612H121.952V176H120.608V165.612ZM135.776 168.58V174.992C135.776 176.289 135.454 177.246 134.81 177.862C134.166 178.487 133.205 178.8 131.926 178.8C131.226 178.8 130.559 178.702 129.924 178.506C129.29 178.319 128.776 178.049 128.384 177.694L129.028 176.658C129.374 176.957 129.798 177.19 130.302 177.358C130.816 177.535 131.343 177.624 131.884 177.624C132.752 177.624 133.392 177.419 133.802 177.008C134.222 176.597 134.432 175.972 134.432 175.132V174.544C134.115 174.927 133.723 175.216 133.256 175.412C132.799 175.599 132.3 175.692 131.758 175.692C131.049 175.692 130.405 175.543 129.826 175.244C129.257 174.936 128.809 174.511 128.482 173.97C128.156 173.419 127.992 172.794 127.992 172.094C127.992 171.394 128.156 170.773 128.482 170.232C128.809 169.681 129.257 169.257 129.826 168.958C130.405 168.659 131.049 168.51 131.758 168.51C132.318 168.51 132.836 168.613 133.312 168.818C133.798 169.023 134.194 169.327 134.502 169.728V168.58H135.776ZM131.912 174.516C132.398 174.516 132.832 174.413 133.214 174.208C133.606 174.003 133.91 173.718 134.124 173.354C134.348 172.981 134.46 172.561 134.46 172.094C134.46 171.375 134.222 170.797 133.746 170.358C133.27 169.91 132.659 169.686 131.912 169.686C131.156 169.686 130.54 169.91 130.064 170.358C129.588 170.797 129.35 171.375 129.35 172.094C129.35 172.561 129.458 172.981 129.672 173.354C129.896 173.718 130.2 174.003 130.582 174.208C130.974 174.413 131.418 174.516 131.912 174.516ZM145.25 172.332C145.25 172.435 145.241 172.57 145.222 172.738H139.202C139.286 173.391 139.571 173.919 140.056 174.32C140.551 174.712 141.162 174.908 141.89 174.908C142.777 174.908 143.491 174.609 144.032 174.012L144.774 174.88C144.438 175.272 144.018 175.571 143.514 175.776C143.02 175.981 142.464 176.084 141.848 176.084C141.064 176.084 140.369 175.925 139.762 175.608C139.156 175.281 138.684 174.829 138.348 174.25C138.022 173.671 137.858 173.018 137.858 172.29C137.858 171.571 138.017 170.923 138.334 170.344C138.661 169.765 139.104 169.317 139.664 169C140.234 168.673 140.873 168.51 141.582 168.51C142.292 168.51 142.922 168.673 143.472 169C144.032 169.317 144.466 169.765 144.774 170.344C145.092 170.923 145.25 171.585 145.25 172.332ZM141.582 169.644C140.938 169.644 140.397 169.84 139.958 170.232C139.529 170.624 139.277 171.137 139.202 171.772H143.962C143.888 171.147 143.631 170.638 143.192 170.246C142.763 169.845 142.226 169.644 141.582 169.644ZM151.489 175.566C151.293 175.734 151.05 175.865 150.761 175.958C150.471 176.042 150.173 176.084 149.865 176.084C149.118 176.084 148.539 175.883 148.129 175.482C147.718 175.081 147.513 174.507 147.513 173.76V169.686H146.253V168.58H147.513V166.956H148.857V168.58H150.985V169.686H148.857V173.704C148.857 174.105 148.955 174.413 149.151 174.628C149.356 174.843 149.645 174.95 150.019 174.95C150.429 174.95 150.779 174.833 151.069 174.6L151.489 175.566ZM163.839 168.58L160.241 176.742C159.924 177.498 159.551 178.03 159.121 178.338C158.701 178.646 158.193 178.8 157.595 178.8C157.231 178.8 156.877 178.739 156.531 178.618C156.195 178.506 155.915 178.338 155.691 178.114L156.265 177.106C156.648 177.47 157.091 177.652 157.595 177.652C157.922 177.652 158.193 177.563 158.407 177.386C158.631 177.218 158.832 176.924 159.009 176.504L159.247 175.986L155.971 168.58H157.371L159.961 174.516L162.523 168.58H163.839ZM168.266 176.084C167.529 176.084 166.866 175.921 166.278 175.594C165.69 175.267 165.228 174.819 164.892 174.25C164.566 173.671 164.402 173.018 164.402 172.29C164.402 171.562 164.566 170.913 164.892 170.344C165.228 169.765 165.69 169.317 166.278 169C166.866 168.673 167.529 168.51 168.266 168.51C169.004 168.51 169.662 168.673 170.24 169C170.828 169.317 171.286 169.765 171.612 170.344C171.948 170.913 172.116 171.562 172.116 172.29C172.116 173.018 171.948 173.671 171.612 174.25C171.286 174.819 170.828 175.267 170.24 175.594C169.662 175.921 169.004 176.084 168.266 176.084ZM168.266 174.908C168.742 174.908 169.167 174.801 169.54 174.586C169.923 174.362 170.222 174.054 170.436 173.662C170.651 173.261 170.758 172.803 170.758 172.29C170.758 171.777 170.651 171.324 170.436 170.932C170.222 170.531 169.923 170.223 169.54 170.008C169.167 169.793 168.742 169.686 168.266 169.686C167.79 169.686 167.361 169.793 166.978 170.008C166.605 170.223 166.306 170.531 166.082 170.932C165.868 171.324 165.76 171.777 165.76 172.29C165.76 172.803 165.868 173.261 166.082 173.662C166.306 174.054 166.605 174.362 166.978 174.586C167.361 174.801 167.79 174.908 168.266 174.908ZM181.091 168.58V176H179.817V174.88C179.547 175.263 179.187 175.561 178.739 175.776C178.301 175.981 177.82 176.084 177.297 176.084C176.308 176.084 175.529 175.813 174.959 175.272C174.39 174.721 174.105 173.914 174.105 172.85V168.58H175.449V172.696C175.449 173.415 175.622 173.961 175.967 174.334C176.313 174.698 176.807 174.88 177.451 174.88C178.161 174.88 178.721 174.665 179.131 174.236C179.542 173.807 179.747 173.2 179.747 172.416V168.58H181.091ZM191.982 175.566C191.786 175.734 191.543 175.865 191.254 175.958C190.964 176.042 190.666 176.084 190.358 176.084C189.611 176.084 189.032 175.883 188.622 175.482C188.211 175.081 188.006 174.507 188.006 173.76V169.686H186.746V168.58H188.006V166.956H189.35V168.58H191.478V169.686H189.35V173.704C189.35 174.105 189.448 174.413 189.644 174.628C189.849 174.843 190.138 174.95 190.512 174.95C190.922 174.95 191.272 174.833 191.562 174.6L191.982 175.566ZM197.768 168.51C198.711 168.51 199.458 168.785 200.008 169.336C200.568 169.877 200.848 170.675 200.848 171.73V176H199.504V171.884C199.504 171.165 199.332 170.624 198.986 170.26C198.641 169.896 198.146 169.714 197.502 169.714C196.774 169.714 196.2 169.929 195.78 170.358C195.36 170.778 195.15 171.385 195.15 172.178V176H193.806V165.612H195.15V169.63C195.43 169.275 195.794 169 196.242 168.804C196.7 168.608 197.208 168.51 197.768 168.51ZM210.283 172.332C210.283 172.435 210.273 172.57 210.255 172.738H204.235C204.319 173.391 204.603 173.919 205.089 174.32C205.583 174.712 206.195 174.908 206.923 174.908C207.809 174.908 208.523 174.609 209.065 174.012L209.807 174.88C209.471 175.272 209.051 175.571 208.547 175.776C208.052 175.981 207.497 176.084 206.881 176.084C206.097 176.084 205.401 175.925 204.795 175.608C204.188 175.281 203.717 174.829 203.381 174.25C203.054 173.671 202.891 173.018 202.891 172.29C202.891 171.571 203.049 170.923 203.367 170.344C203.693 169.765 204.137 169.317 204.697 169C205.266 168.673 205.905 168.51 206.615 168.51C207.324 168.51 207.954 168.673 208.505 169C209.065 169.317 209.499 169.765 209.807 170.344C210.124 170.923 210.283 171.585 210.283 172.332ZM206.615 169.644C205.971 169.644 205.429 169.84 204.991 170.232C204.561 170.624 204.309 171.137 204.235 171.772H208.995C208.92 171.147 208.663 170.638 208.225 170.246C207.795 169.845 207.259 169.644 206.615 169.644ZM213.637 169.826C213.87 169.397 214.216 169.07 214.673 168.846C215.13 168.622 215.686 168.51 216.339 168.51V169.812C216.264 169.803 216.162 169.798 216.031 169.798C215.303 169.798 214.729 170.017 214.309 170.456C213.898 170.885 213.693 171.501 213.693 172.304V176H212.349V168.58H213.637V169.826ZM224.833 172.332C224.833 172.435 224.824 172.57 224.805 172.738H218.785C218.869 173.391 219.154 173.919 219.639 174.32C220.134 174.712 220.745 174.908 221.473 174.908C222.36 174.908 223.074 174.609 223.615 174.012L224.357 174.88C224.021 175.272 223.601 175.571 223.097 175.776C222.602 175.981 222.047 176.084 221.431 176.084C220.647 176.084 219.952 175.925 219.345 175.608C218.738 175.281 218.267 174.829 217.931 174.25C217.604 173.671 217.441 173.018 217.441 172.29C217.441 171.571 217.6 170.923 217.917 170.344C218.244 169.765 218.687 169.317 219.247 169C219.816 168.673 220.456 168.51 221.165 168.51C221.874 168.51 222.504 168.673 223.055 169C223.615 169.317 224.049 169.765 224.357 170.344C224.674 170.923 224.833 171.585 224.833 172.332ZM221.165 169.644C220.521 169.644 219.98 169.84 219.541 170.232C219.112 170.624 218.86 171.137 218.785 171.772H223.545C223.47 171.147 223.214 170.638 222.775 170.246C222.346 169.845 221.809 169.644 221.165 169.644ZM227.221 176.084C226.96 176.084 226.736 175.995 226.549 175.818C226.363 175.631 226.269 175.398 226.269 175.118C226.269 174.847 226.363 174.623 226.549 174.446C226.736 174.259 226.96 174.166 227.221 174.166C227.483 174.166 227.702 174.255 227.879 174.432C228.057 174.609 228.145 174.838 228.145 175.118C228.145 175.398 228.052 175.631 227.865 175.818C227.688 175.995 227.473 176.084 227.221 176.084Z" fill="#737373"/>
</g>
<defs>
<filter id="filter0_d_1_47" x="0" y="0" width="366" height="248" filterUnits="userSpaceOnUse" color-interpolation-filters="sRGB">
<feFlood flood-opacity="0" result="BackgroundImageFix"/>
<feColorMatrix in="SourceAlpha" type="matrix" values="0 0 0 0 0 0 0 0 0 0 0 0 0 0 0 0 0 0 127 0" result="hardAlpha"/>
<feOffset dy="13"/>
<feGaussianBlur stdDeviation="9.5"/>
<feColorMatrix type="matrix" values="0 0 0 0 0 0 0 0 0 0 0 0 0 0 0 0 0 0 0.07 0"/>
<feBlend mode="normal" in2="BackgroundImageFix" result="effect1_dropShadow_1_47"/>
<feBlend mode="normal" in="SourceGraphic" in2="effect1_dropShadow_1_47" result="shape"/>
</filter>
<clipPath id="clip0_1_47">
<rect width="48" height="48" fill="white" transform="translate(59 41)"/>
</clipPath>
<clipPath id="clip1_1_47">
<rect width="48" height="47.4146" fill="white" transform="translate(59 41)"/>
</clipPath>
</defs>
</svg>
